<svg xmlns="http://www.w3.org/2000/svg" viewBox="0 0 500 500"><g id="freepik--background-complete--inject-12"><rect y="382.4" width="500" height="0.25" style="fill:#ebebeb"></rect><rect x="416.78" y="398.49" width="18.89" height="0.25" style="fill:#ebebeb"></rect><rect x="293.05" y="396.75" width="29.47" height="0.25" style="fill:#ebebeb"></rect><rect x="368.67" y="389.21" width="47.11" height="0.25" style="fill:#ebebeb"></rect><rect x="52.46" y="390.89" width="10.97" height="0.25" style="fill:#ebebeb"></rect><rect x="72.33" y="390.89" width="38.56" height="0.25" style="fill:#ebebeb"></rect><rect x="171" y="395.11" width="54.15" height="0.25" style="fill:#ebebeb"></rect><path d="M237,337.8H43.91a5.71,5.71,0,0,1-5.7-5.71V60.66A5.71,5.71,0,0,1,43.91,55H237a5.71,5.71,0,0,1,5.71,5.71V332.09A5.71,5.71,0,0,1,237,337.8ZM43.91,55.2a5.46,5.46,0,0,0-5.45,5.46V332.09a5.46,5.46,0,0,0,5.45,5.46H237a5.47,5.47,0,0,0,5.46-5.46V60.66A5.47,5.47,0,0,0,237,55.2Z" style="fill:#ebebeb"></path><path d="M453.31,337.8H260.21a5.72,5.72,0,0,1-5.71-5.71V60.66A5.72,5.72,0,0,1,260.21,55h193.1A5.71,5.71,0,0,1,459,60.66V332.09A5.71,5.71,0,0,1,453.31,337.8ZM260.21,55.2a5.47,5.47,0,0,0-5.46,5.46V332.09a5.47,5.47,0,0,0,5.46,5.46h193.1a5.47,5.47,0,0,0,5.46-5.46V60.66a5.47,5.47,0,0,0-5.46-5.46Z" style="fill:#ebebeb"></path><rect x="416.78" y="398.49" width="18.89" height="0.25" style="fill:#ebebeb"></rect><rect x="293.05" y="396.75" width="29.47" height="0.25" style="fill:#ebebeb"></rect><rect x="368.67" y="389.21" width="47.11" height="0.25" style="fill:#ebebeb"></rect><rect x="52.46" y="390.89" width="10.97" height="0.25" style="fill:#ebebeb"></rect><rect x="72.33" y="390.89" width="38.56" height="0.25" style="fill:#ebebeb"></rect><rect x="171" y="395.11" width="54.15" height="0.25" style="fill:#ebebeb"></rect><path d="M172.83,200l-21.59-10.48a77.34,77.34,0,0,1-43.35-69.2V80.67h40v39.65a37.13,37.13,0,0,0,20.8,33.21L190.28,164Z" style="fill:#ebebeb"></path><rect x="103.39" y="72.33" width="49" height="16.67" rx="2.21" style="fill:#ebebeb"></rect><rect x="151.01" y="232.77" width="246.07" height="149.62" transform="translate(548.08 615.17) rotate(180)" style="fill:#f5f5f5"></rect><path d="M370.65,371.07H177.43a.9.9,0,0,1-.9-.9V282.34a.9.9,0,0,1,.9-.9H370.65a.9.9,0,0,1,.9.9v87.83A.9.9,0,0,1,370.65,371.07Zm-192.32-1.8H369.75v-86H178.33Z" style="fill:#fff"></path><rect x="148.58" y="362.67" width="245.68" height="19.73" transform="translate(542.85 745.07) rotate(180)" style="fill:#e6e6e6"></rect><rect x="397.07" y="232.77" width="46.82" height="149.62" style="fill:#ebebeb"></rect><rect x="394.27" y="362.67" width="49.62" height="19.73" style="fill:#e0e0e0"></rect><path d="M297.45,100.62c-75.51,0-136.72,59.17-136.72,132.15H434.17C434.17,159.79,373,100.62,297.45,100.62Z" style="fill:#f5f5f5"></path><rect x="379.15" y="175.61" width="24.5" height="8.72" style="fill:#ebebeb"></rect><rect x="366.9" y="184.33" width="24.5" height="8.72" style="fill:#ebebeb"></rect><rect x="212.61" y="151.61" width="24.5" height="8.72" style="fill:#ebebeb"></rect><rect x="322.17" y="126.61" width="24.5" height="8.72" style="fill:#ebebeb"></rect><rect x="200.36" y="160.33" width="24.5" height="8.72" style="fill:#ebebeb"></rect><path d="M192.06,232.77v-10c0-45.74,36.78-83,82-83s82,37.21,82,83v10Z" style="fill:#fff"></path><path d="M274,159.82c-38.39,0-69.51,32.66-69.51,73h139C343.55,192.48,312.43,159.82,274,159.82Z" style="fill:#e0e0e0"></path><path d="M327.18,103.75c54.56,25,76.33,69.69,76.33,129h30.66C434.17,169.66,388.39,116.87,327.18,103.75Z" style="fill:#e6e6e6"></path><path d="M285.92,150.11H262.16c-2.12,0-3.91-2-4.17-4.57L256.58,131c-.3-3.09,1.65-5.82,4.17-5.82h26.58c2.52,0,4.47,2.73,4.17,5.82l-1.41,14.5C289.83,148.15,288,150.11,285.92,150.11Z" style="fill:#fff"></path><path d="M239.75,232.77c-8.79-9.77.18-36.52,8.61-46.48-3.94,23.6,8.8,30.93,16.87,22.27s5.57-26,0-35.12C287,174.56,295,190.65,296.46,201c2,14,23.51,4.67,16.15-10.67,11.49,12,18.85,26.22,13.1,42.44Z" style="fill:#fff"></path><rect x="357.61" y="254.28" width="24.5" height="8.72" style="fill:#ebebeb"></rect><rect x="307.72" y="333.19" width="24.5" height="8.72" style="fill:#ebebeb"></rect><rect x="345.36" y="263" width="24.5" height="8.72" style="fill:#ebebeb"></rect><rect x="196.9" y="313.17" width="24.5" height="8.72" transform="translate(418.3 635.07) rotate(180)" style="fill:#ebebeb"></rect><rect x="221.4" y="313.17" width="24.5" height="8.72" transform="translate(467.3 635.07) rotate(180)" style="fill:#ebebeb"></rect><rect x="209.15" y="321.89" width="24.5" height="8.72" transform="translate(442.8 652.51) rotate(180)" style="fill:#ebebeb"></rect><rect x="49.45" y="207.47" width="2.02" height="174.92" style="fill:#f5f5f5"></rect><rect x="66.62" y="207.47" width="2.02" height="174.92" style="fill:#f5f5f5"></rect><rect x="47.33" y="215.17" width="64.08" height="6.26" style="fill:#f0f0f0"></rect><rect x="111.42" y="215.17" width="24.29" height="6.26" style="fill:#e6e6e6"></rect><rect x="47.33" y="277.74" width="64.08" height="6.26" style="fill:#f0f0f0"></rect><rect x="111.42" y="277.74" width="24.29" height="6.26" style="fill:#e6e6e6"></rect><rect x="47.33" y="340.3" width="64.08" height="6.26" style="fill:#f0f0f0"></rect><rect x="111.42" y="340.3" width="24.29" height="6.26" style="fill:#e6e6e6"></rect><path d="M122,272.57H57.36a2.59,2.59,0,0,0-2.58,2.58h0a2.59,2.59,0,0,0,2.58,2.59H122a2.6,2.6,0,0,0,2.59-2.59h0A2.59,2.59,0,0,0,122,272.57Z" style="fill:#ebebeb"></path><rect x="114.5" y="207.47" width="2.02" height="174.92" style="fill:#f5f5f5"></rect><rect x="131.67" y="207.47" width="2.02" height="174.92" style="fill:#f5f5f5"></rect></g><g id="freepik--Shadow--inject-12"><ellipse id="freepik--path--inject-12" cx="250" cy="416.24" rx="193.89" ry="11.32" style="fill:#f5f5f5"></ellipse></g><g id="freepik--Table--inject-12"><rect x="86.67" y="258" width="326.67" height="7.56" style="fill:#263238"></rect><polygon points="113.17 413 108.5 413 118.5 263.78 125.17 263.78 113.17 413" style="fill:#263238"></polygon><polygon points="386.83 413 391.5 413 381.5 263.78 374.83 263.78 386.83 413" style="fill:#263238"></polygon><path d="M334.66,246.67H285.84a5.68,5.68,0,0,0-5.67,5.67h0a5.68,5.68,0,0,0,5.67,5.66h48.82a5.68,5.68,0,0,0,5.67-5.66h0A5.68,5.68,0,0,0,334.66,246.67Z" style="fill:#73BF86"></path><path d="M334.66,246.67a5.67,5.67,0,1,0,5.67,5.67A5.68,5.68,0,0,0,334.66,246.67Z" style="opacity:0.2"></path><path d="M342,250.75a38.44,38.44,0,0,1-5.86.15,1.44,1.44,0,0,0-1.48,1.44h0a1.44,1.44,0,0,0,1.48,1.43,38.44,38.44,0,0,1,5.86.15c2.42.33,4.63-.25,4.63-1.58S344.42,250.42,342,250.75Z" style="fill:#73BF86"></path><path d="M279.16,250.75a38.57,38.57,0,0,0,5.87.15,1.44,1.44,0,0,1,1.47,1.44h0a1.44,1.44,0,0,1-1.47,1.43,38.57,38.57,0,0,0-5.87.15c-2.41.33-4.62-.25-4.62-1.58S276.75,250.42,279.16,250.75Z" style="fill:#73BF86"></path><path d="M144.36,254.19s4.12-2.2-1.92-7.24-3-17.72-3-17.72,2.12.5,2.12-1.59-2.36-3-2.36-3,3.84.6,3.84-6.14c0-5.84-2.06-6.94-5.49-7.14a2.31,2.31,0,0,0,.64-1.59,2.34,2.34,0,1,0-4.67,0,2.3,2.3,0,0,0,.63,1.59c-3.43.2-5.48,1.3-5.48,7.14,0,6.74,3.84,6.14,3.84,6.14s-2.36.88-2.36,3,2.11,1.59,2.11,1.59,3,12.67-3,17.72-1.92,7.24-1.92,7.24-3,1.24-2,3.88h21C147.38,255.43,144.36,254.19,144.36,254.19Z" style="fill:#263238"></path><path d="M126.55,254.05s4.27-2.28-2-7.5-3.1-18.36-3.1-18.36,2.19.51,2.19-1.65-2.45-3.06-2.45-3.06,4,.62,4-6.37c0-6.05-2.13-7.19-5.68-7.39a2.42,2.42,0,1,0-4.18-1.65,2.38,2.38,0,0,0,.66,1.65c-3.56.2-5.69,1.34-5.69,7.39,0,7,4,6.37,4,6.37s-2.44.9-2.44,3.06,2.19,1.65,2.19,1.65,3.15,13.13-3.1,18.36-2,7.5-2,7.5-3.13,1.29-2,4H128.6C129.68,255.34,126.55,254.05,126.55,254.05Z" style="fill:#73BF86"></path><path d="M392.48,198.76H327.67a7,7,0,0,1-7.06-7.8l6.2-64.81a8.77,8.77,0,0,1,8.55-7.8h64.8a7,7,0,0,1,7.06,7.8L401,191A8.77,8.77,0,0,1,392.48,198.76Z" style="fill:#73BF86"></path><path d="M392.48,198.76H327.67a7,7,0,0,1-7.06-7.8l6.2-64.81a8.77,8.77,0,0,1,8.55-7.8h64.8a7,7,0,0,1,7.06,7.8L401,191A8.77,8.77,0,0,1,392.48,198.76Z" style="fill:#fff;opacity:0.6000000000000001"></path><path d="M327.3,196.32a5.29,5.29,0,0,1-5.36-5.92l6.2-64.8a6.66,6.66,0,0,1,6.48-5.92h64.81a5.29,5.29,0,0,1,5.35,5.92l-6.19,64.8a6.66,6.66,0,0,1-6.49,5.92Z" style="fill:#fff;opacity:0.6000000000000001"></path><path d="M356.1,198.76l-2.35,24.52a1.39,1.39,0,0,0,1.41,1.55h.56L337.93,411a1.85,1.85,0,0,0,1.84,2h0a1.84,1.84,0,0,0,1.84-1.67l17.83-186.5H360a1.75,1.75,0,0,0,1.71-1.55l2.34-24.52Z" style="fill:#73BF86"></path><polygon points="356.1 198.76 355.78 202.1 363.92 200.17 364.05 198.76 356.1 198.76" style="opacity:0.2"></polygon></g><g id="freepik--Character--inject-12"><path d="M257.12,136.29l-18.21,7.63s-5.85,12.11,9.27,11.25S257.12,136.29,257.12,136.29Z" style="fill:#263238"></path><path d="M285.78,110.22a12.88,12.88,0,0,0,4.13-9c.19-7.6-6.62-13.93-15.21-14.14a17.24,17.24,0,0,0-4.34.44,10.81,10.81,0,0,0-2.3-8c-4-4.75-11.56-4.51-16.94.54-4,3.75-5.66,9.11-4.61,13.56-6.55,5.8-11.66,15.58-11.66,15.58l23.89,30.5s6.68-2.54,14.1-10.77a14.85,14.85,0,0,0,1.65.81c6.7,2.72,13.88.12,16.05-5.81C292.3,119.12,290.21,113.59,285.78,110.22Z" style="fill:#73BF86"></path><path d="M285.78,110.22a12.88,12.88,0,0,0,4.13-9c.19-7.6-6.62-13.93-15.21-14.14a17.24,17.24,0,0,0-4.34.44,10.81,10.81,0,0,0-2.3-8c-4-4.75-11.56-4.51-16.94.54-4,3.75-5.66,9.11-4.61,13.56-6.55,5.8-11.66,15.58-11.66,15.58l23.89,30.5s6.68-2.54,14.1-10.77a14.85,14.85,0,0,0,1.65.81c6.7,2.72,13.88.12,16.05-5.81C292.3,119.12,290.21,113.59,285.78,110.22Z" style="fill:#fff;opacity:0.7000000000000001"></path><polygon points="168.47 386.95 184.53 392.05 177.36 410.66 163.93 406.42 168.47 386.95" style="fill:#ffc3bd"></polygon><polygon points="168.47 386.96 184.54 392.06 180.52 402.48 165.93 397.86 168.47 386.96" style="opacity:0.2"></polygon><path d="M205.66,332.09c8.8-24.56,24-53.41,15.41-78.6l-46.84-4.37s-3.2,50-3.55,73.65c-.38,24.56-5.47,70.34-5.47,70.34l18.43,5.7S206.38,359.79,205.66,332.09Z" style="fill:#73BF86"></path><path d="M205.66,332.09c8.8-24.56,24-53.41,15.41-78.6l-46.84-4.37s-3.2,50-3.55,73.65c-.38,24.56-5.47,70.34-5.47,70.34l18.43,5.7S206.38,359.79,205.66,332.09Z" style="fill:#fff;opacity:0.4"></path><polygon points="184.92 399.92 163.81 393.45 165.54 383.68 189.4 392.23 184.92 399.92" style="fill:#263238"></polygon><path d="M208.58,324.33c4.8-12.46,10.42-25.76,13.23-38.95C217.77,281.11,206.21,297.67,208.58,324.33Z" style="opacity:0.2"></path><path d="M179.78,408.21a.69.69,0,0,0-.67-.89c-4.74.3-11.87-3.24-14.53-4.66a2.68,2.68,0,0,0-2-.2c-4.05,1.15-11.89.21-11.89.21s-2.25,2.31-2.54,4.52L178,416.34A52.69,52.69,0,0,1,179.78,408.21Z" style="fill:#263238"></path><polygon points="242.77 391.04 259.65 391.2 261.66 411.1 247.56 410.98 242.77 391.04" style="fill:#ffc3bd"></polygon><path d="M262.59,408a.76.76,0,0,0-1-.65c-4.29,1.67-12.25.39-15.27-.19a2.49,2.49,0,0,0-2,.4c-3.33,2.29-9.68,3.69-9.68,3.69s-1.2,2.87-.64,5.07l30,0A55,55,0,0,1,262.59,408Z" style="fill:#263238"></path><polygon points="242.77 391.05 259.66 391.21 260.78 402.35 245.45 402.22 242.77 391.05" style="opacity:0.2"></polygon><path d="M262.28,327.56c2-25.31,5-58.37-3.27-70.83l-55.14-4.94S219.47,303,224.33,327c5,24.9,19,70.91,19,70.91l18.24.05S268.4,357.19,262.28,327.56Z" style="fill:#73BF86"></path><path d="M262.28,327.56c2-25.31,5-58.37-3.27-70.83l-55.14-4.94S219.47,303,224.33,327c5,24.9,19,70.91,19,70.91l18.24.05S268.4,357.19,262.28,327.56Z" style="fill:#fff;opacity:0.4"></path><polygon points="263.57 398.61 241.63 398.61 239.12 389.48 263.3 389.87 263.57 398.61" style="fill:#263238"></polygon><path d="M217.68,175.08c-2.36.4-4.49.72-6.74,1s-4.43.52-6.66.75c-4.45.41-8.93.74-13.46.87q-3.4.11-6.85.11c-2.31,0-4.63-.1-7-.23s-4.78-.32-7.26-.67a58.81,58.81,0,0,1-7.88-1.56l-.92-.26a8.48,8.48,0,0,1-3.51-2,76.24,76.24,0,0,1-7.16-7.92c-2.15-2.62-4.05-5.32-5.94-8l-2.71-4.09c-.88-1.38-1.73-2.78-2.57-4.17-1.67-2.82-3.26-5.62-4.72-8.64a6.07,6.07,0,0,1,9.26-7.39l.11.08c2.45,2,4.84,4.07,7.21,6.12l7,6.19,3.44,3,3.42,3c2.24,1.91,4.54,3.77,6.54,5.19l-4.43-2.22a39.45,39.45,0,0,0,4.91.39c1.81,0,3.72.07,5.66,0s3.95-.15,6-.28,4-.26,6.08-.43c4.08-.37,8.21-.75,12.34-1.22l12.3-1.4.21,0a12,12,0,0,1,3.36,23.76Z" style="fill:#ffc3bd"></path><path d="M145,136.05l-4.93,5.12c-6.74,3.2-9.35-6.18-9.35-6.18l-3.07-4a3.76,3.76,0,0,1,.55-4.84l3.41-3.6a3.93,3.93,0,0,1,5.45-.56l3.22,3a7.86,7.86,0,0,1,2.05,3.18Z" style="fill:#ffc3bd"></path><path d="M219.72,150.28c-11.35-1.22-44.56,2.46-44.56,2.46-6,6.72-7.87,19.08-3.27,25.57,0,0,26.58,4.55,37.07,1.3C221.63,175.68,242.69,152.74,219.72,150.28Z" style="fill:#73BF86"></path><path d="M178.24,152.5a1,1,0,0,0-.8-1.32c-3.9-.79-5.85-.53-7.19.95S162.73,171,167.2,178a1.24,1.24,0,0,0,.18.22c1.37,1.32,4.78,1.64,6.45,2.44a1,1,0,0,0,1.48-.91C175.22,175,175.24,161,178.24,152.5Z" style="fill:#73BF86"></path><path d="M178.24,152.5a1,1,0,0,0-.8-1.32c-3.9-.79-5.85-.53-7.19.95S162.73,171,167.2,178a1.24,1.24,0,0,0,.18.22c1.37,1.32,4.78,1.64,6.45,2.44a1,1,0,0,0,1.48-.91C175.22,175,175.24,161,178.24,152.5Z" style="fill:#fff;opacity:0.6000000000000001"></path><path d="M219.72,150.28a211.83,211.83,0,0,1,45.49,11.33c8.47,3.26,13.39,10.14,8.16,27.83-10.6,35.89-5.55,56.6-11.49,69.55,0,0-78.61,9.92-90.33-7.61-.74-45.21,23.21-81.77,33.89-95.24A15.75,15.75,0,0,1,219.72,150.28Z" style="fill:#73BF86"></path><path d="M234.34,211.67a56.73,56.73,0,0,0,32.49-22.34L231.2,193Z" style="opacity:0.2"></path><path d="M259.47,159.53c-5.56,2-24.26,57-15.48,80.91s19.81,12.65,19.81,12.65-.49,7.23-2.23,9.12c-4.66-.33-15.43,51.46-15.08,91.46a54.49,54.49,0,0,1-33.83.66L212.1,358s-11.44,5.22-34.61-3.5c-.11-1.33,0-3.89,0-3.89s-.5,2.72-19.94-6.39c.22-10.11,2.55-75.78,12.44-90-1.89-6.55-4.55-22.66.78-37.22s28-61.72,53.67-66.06a3.84,3.84,0,0,1,2.8.46A52.19,52.19,0,0,0,193.66,185c16,8.83,45.79,8.17,45.79,8.17s7.34-23.87,17.65-34.42A2.3,2.3,0,0,1,259.47,159.53Z" style="fill:#263238"></path><path d="M228.88,261.76c-23.85,0-46.24-3.67-57.46-6.41a.5.5,0,0,1,.23-1c16.17,3.95,55.58,9.83,89,3.79a.51.51,0,0,1,.58.41.5.5,0,0,1-.4.58A182.25,182.25,0,0,1,228.88,261.76Z" style="fill:#fff"></path><path d="M169.54,303.31a2.18,2.18,0,0,1-.44,0c-1.16-.23-2.08-1.34-2.74-3.31-3.07-9.22,0-35.23,8.5-44.58a.5.5,0,0,1,.54-.14.51.51,0,0,1,.33.45c.07,1.64,1.7,40.27-2.69,45.41C171.79,302.57,170.61,303.31,169.54,303.31ZM174.79,257c-7.5,9.73-10.31,34.11-7.48,42.61.37,1.1,1,2.46,2,2.65.78.15,1.82-.48,3-1.84C175.49,296.69,175.34,271.13,174.79,257Z" style="fill:#fff"></path><path d="M174.25,297.11a2.84,2.84,0,0,1-2-.85c-5.18-4.95-3.33-34,2.61-40.85a.47.47,0,0,1,.81.2c.32,1.39,7.92,34.11,1.87,39.82A5,5,0,0,1,174.25,297.11ZM175,256.8c-5.12,7.71-6.75,34.33-2.09,38.79.39.36,1.55,1.48,4-.84C182,289.93,176.23,262.37,175,256.8Z" style="fill:#fff"></path><path d="M224.25,154.17c2.2-1.23,3.73.24,5.26-2.08a9.14,9.14,0,0,0,.64-6.13l23.6-5.54c-2.46,7.47-4.38,13.37-1.84,17.28-.55,5.91-12,11.67-25.89,7.24C216.13,161.78,221.1,155.93,224.25,154.17Z" style="fill:#ffc3bd"></path><path d="M230.28,146.68l17.36.34c-5.86,5.35-14.21,6.88-17.77,4.24A9.16,9.16,0,0,0,230.28,146.68Z" style="opacity:0.2"></path><path d="M234.26,108.3c-6.75,1.69-11.2,9-7.62,15.68s10.31,4.74,15.7.58l2.09-10.5S241,106.61,234.26,108.3Z" style="fill:#263238"></path><path d="M227.27,121.29c-2.87,2-3.61,6.33-.68,8.82s5.74.32,7.52-2.65l-1-5.34S230.15,119.23,227.27,121.29Z" style="fill:#263238"></path><path d="M259.15,129c-3.53,10.49-6.14,17.55-13.55,20.39-14.71,5.66-20.53-2.14-20.22-13.51.29-10.23,6-25.68,17.58-27A15.26,15.26,0,0,1,259.15,129Z" style="fill:#ffc3bd"></path><path d="M258.33,134.94c-5.75-2.36-5.92-10.69-4.34-13.94-6.41-.75-11.75-3.67-12-6.58-6.33,2.5-13.33,2.5-14.91-4.92s1.24-14,8.13-13,11.71,8.37,11.71,8.37,6.32-6.59,13-.5a12.77,12.77,0,0,1,4.12,11.41s6.34,1.14,6.91,8.75-5.58,9.13-5.58,9.13,3.87,10-5.45,14.37c-10.34,4.87-7.72-7.41-7.72-7.41Z" style="fill:#263238"></path><path d="M252.72,127.81c-2.88,2.05-3.62,6.32-.69,8.81s5.75.33,7.52-2.64l-1-5.34S255.59,125.75,252.72,127.81Z" style="fill:#263238"></path><path d="M266.83,139.85c-3.41,0-4.73-2.62-4.82-4.9-.06-1.58.48-3.3,1.62-3.35h0a6.82,6.82,0,0,1,5.77,3.24,3.64,3.64,0,0,1,.52,3.6c-.33.61-1.09,1.36-2.89,1.41Zm-3.15-7.26c-.23,0-.72.9-.67,2.32.08,1.92,1.12,3.94,3.83,3.94H267a2.31,2.31,0,0,0,2-.88,2.73,2.73,0,0,0-.49-2.59,5.85,5.85,0,0,0-4.87-2.79Zm0-.5h0Z" style="fill:#263238"></path><path d="M233.25,118.15a8.29,8.29,0,0,1-2.2-.29,8.08,8.08,0,0,1-5.14-4.8c-2-4.41-2.21-8.77-.5-11.66A7.25,7.25,0,0,1,231.46,98a.51.51,0,0,1,.54.46.51.51,0,0,1-.47.53,6.32,6.32,0,0,0-5.26,3c-1.54,2.6-1.34,6.62.55,10.74a7.14,7.14,0,0,0,4.5,4.25c2.79.78,6.48-.25,10.39-2.9a.51.51,0,0,1,.7.14.5.5,0,0,1-.14.69C239.05,117,235.93,118.15,233.25,118.15Z" style="fill:#263238"></path><path d="M245.3,127.53a5,5,0,0,1,3.81.31A10,10,0,0,1,245.3,127.53Z" style="opacity:0.2"></path><path d="M245.29,128.44a4.14,4.14,0,0,1,3.27,1.13A8,8,0,0,1,245.29,128.44Z" style="opacity:0.2"></path><path d="M260.39,141.3a10.43,10.43,0,0,1-7.26,3.39c-3.69.13-3.51-2.81-1.78-5.84,1.55-2.73,4.15-6.67,7.51-5.36S262.66,138.76,260.39,141.3Z" style="fill:#ffc3bd"></path><path d="M240.48,126.72c-.24.87-.89,1.45-1.45,1.29s-.84-1-.61-1.86.88-1.44,1.45-1.29S240.71,125.85,240.48,126.72Z" style="fill:#263238"></path><path d="M231,124.1c-.23.87-.88,1.44-1.45,1.29s-.84-1-.6-1.86.88-1.45,1.45-1.29S231.21,123.23,231,124.1Z" style="fill:#263238"></path><path d="M235.49,125.07l-1.69,7.57a4.8,4.8,0,0,1-5-1.11C230.82,127.51,235.49,125.07,235.49,125.07Z" style="fill:#ed847e"></path><path d="M244.7,124.86a.47.47,0,0,0,.26,0,.52.52,0,0,0,.31-.68,5.33,5.33,0,0,0-3.52-3.34.53.53,0,1,0-.22,1h0a4.26,4.26,0,0,1,2.75,2.67A.54.54,0,0,0,244.7,124.86Z" style="fill:#263238"></path><path d="M228,120.13a.55.55,0,0,0,.5,0,4.16,4.16,0,0,1,3.79-.36.53.53,0,0,0,.71-.24.54.54,0,0,0-.25-.71,5.16,5.16,0,0,0-4.79.39.53.53,0,0,0-.18.73A.56.56,0,0,0,228,120.13Z" style="fill:#263238"></path><path d="M255.68,191.76c-.67.23-1.1.38-1.64.55l-1.51.49c-1,.31-2,.59-3,.87-2,.57-4,1-6,1.5s-4.06.84-6.11,1.2-4.12.68-6.22.91-4.21.44-6.36.57-4.32.16-6.53.12a63.3,63.3,0,0,1-13.76-1.59l-.91-.21a7.15,7.15,0,0,1-1.41-.51,24.09,24.09,0,0,1-6.13-4.31,28.38,28.38,0,0,1-4.09-5,41.13,41.13,0,0,1-4.6-9.94c-.5-1.63-.92-3.25-1.28-4.85s-.59-3.21-.81-4.8-.34-3.18-.43-4.77c0-.8-.06-1.59-.07-2.39s0-1.56,0-2.51a6,6,0,0,1,11.24-2.75l.51.91c.26.47.55,1.16.84,1.75l.87,1.83c.56,1.22,1.17,2.42,1.78,3.6a65.71,65.71,0,0,0,3.8,6.62c.67,1,1.32,2,2,2.82a26.64,26.64,0,0,0,2,2.21,5.25,5.25,0,0,0,2.93,1.69l-2.31-.71a55.15,55.15,0,0,0,9.18,0c1.63-.12,3.3-.32,5-.55s3.38-.48,5.08-.78c3.4-.63,6.86-1.33,10.3-2.17,1.72-.4,3.44-.86,5.15-1.29l4.91-1.32.42-.11a12,12,0,0,1,7.12,22.9Z" style="fill:#ffc3bd"></path><path d="M269.7,191.67C256,207.72,219,201.4,219,201.4c-6.61-4.05-7-19.63-4.37-27.65,0,0,30.39-11.9,43.26-12.65C269.8,160.4,277.56,182.47,269.7,191.67Z" style="fill:#73BF86"></path><path d="M196.4,158.24l-6.73,2.29c-7.45-.26-5.46-9.79-5.46-9.79l-.9-5a3.77,3.77,0,0,1,2.71-4.05l4.69-1.63a3.92,3.92,0,0,1,5.09,2l1.48,4.15a7.67,7.67,0,0,1,.36,3.77Z" style="fill:#ffc3bd"></path><path d="M232.82,134.49c-1.47-.31-1.44,2.08-.32,2.64.86.44,7.13,2,10.8,5.38C241.53,139.56,236.48,135.25,232.82,134.49Z" style="fill:#263238"></path><path d="M230.77,134.59a6.64,6.64,0,0,0-.24,1.21.76.76,0,0,1-.94.57,14.59,14.59,0,0,0-8.05.86,16,16,0,0,1,8.26-3.43C230.4,133.74,230.91,134.11,230.77,134.59Z" style="fill:#263238"></path><path d="M229.86,140.19a6.9,6.9,0,0,1-4.33-.41c-2.46,2.29,1.67,5.73.05,9,5,.68,7.65.45,9.95-1.07a5,5,0,0,0,2.09-4.92,13,13,0,0,1-5.79-2.07A2.43,2.43,0,0,0,229.86,140.19Z" style="fill:#263238"></path><path d="M229.64,138.24a7.93,7.93,0,0,1-1.33-.52.24.24,0,0,1-.12-.33.25.25,0,0,1,.34-.11,6.69,6.69,0,0,0,6.06.05.25.25,0,0,1,.26.43A7,7,0,0,1,229.64,138.24Z" style="fill:#263238"></path><path d="M97.71,84.83c0-3.68.56-6,2-7.42l.71.71c-1.22,1.24-1.75,3.31-1.7,6.69Z" style="fill:#73BF86"></path><path d="M114.51,108.68c-7.58-5.08-12.86-10.87-15.28-16.74l.93-.38c2.34,5.68,7.49,11.32,14.9,16.29Z" style="fill:#73BF86"></path><path d="M101.21,84.78c-.28-18.92,18.66,17.68,43.12,29.33,19.86,9.47,43.53-4,62.69-5.25,24.07-1.54-10.45,16.8-46.21,12.2C127.3,116.76,101.44,100.14,101.21,84.78Z" style="fill:#73BF86"></path><path d="M218.13,173.07A1,1,0,0,0,217,172c-4,.25-5.78,1-6.69,2.85-1,2-1.91,19.47,4.22,25.24l.23.17a24.63,24.63,0,0,0,6.39,2,1,1,0,0,0,1.2-1.3C221.06,196.25,217.45,182.35,218.13,173.07Z" style="fill:#73BF86"></path><path d="M218.13,173.07A1,1,0,0,0,217,172c-4,.25-5.78,1-6.69,2.85-1,2-1.91,19.47,4.22,25.24l.23.17a24.63,24.63,0,0,0,6.39,2,1,1,0,0,0,1.2-1.3C221.06,196.25,217.45,182.35,218.13,173.07Z" style="fill:#fff;opacity:0.6000000000000001"></path></g></svg>
